<?xml version="1.0" encoding="UTF-8"?>
<svg version="1.1" xmlns="http://www.w3.org/2000/svg" width="82" height="81">
<path d="M0 0 C1.98 0 3.96 0 6 0 C6.15855469 0.53367188 6.31710938 1.06734375 6.48046875 1.6171875 C8.40053915 7.74868303 11.00234357 13.32459514 14 19 C15.81332154 18.69230293 17.62564345 18.37870936 19.4375 18.0625 C20.44683594 17.88847656 21.45617188 17.71445312 22.49609375 17.53515625 C24.9287438 17.25248903 24.9287438 17.25248903 26 16 C30.09786983 15.39539626 33.85337101 15 38 15 C37.36355878 17.99156701 36.38047987 20.41938953 34.93359375 23.109375 C34.53076172 23.86347656 34.12792969 24.61757813 33.71289062 25.39453125 C33.29201172 26.17183594 32.87113281 26.94914062 32.4375 27.75 C31.80038086 28.93916016 31.80038086 28.93916016 31.15039062 30.15234375 C30.10417583 32.10371067 29.05394047 34.05279814 28 36 C30.71604715 38.87420123 30.71604715 38.87420123 34 41 C34 41.66 34 42.32 34 43 C34.53625 43.226875 35.0725 43.45375 35.625 43.6875 C38.87720486 45.48477111 41.29921515 47.4219781 44 50 C44 51.32 44 52.64 44 54 C42.90300781 54.20496094 41.80601563 54.40992188 40.67578125 54.62109375 C39.22135113 54.89321293 37.76692422 55.16534925 36.3125 55.4375 C35.59126953 55.57220703 34.87003906 55.70691406 34.12695312 55.84570312 C33.42119141 55.97783203 32.71542969 56.10996094 31.98828125 56.24609375 C31.34415283 56.36654053 30.70002441 56.4869873 30.03637695 56.61108398 C27.68810444 57.05956715 25.34428949 57.5311421 23 58 C23 65.59 23 73.18 23 81 C17.32300163 79.86460033 17.32300163 79.86460033 14.1875 77.5625 C13.58292969 77.13066406 12.97835937 76.69882813 12.35546875 76.25390625 C11.90816406 75.84011719 11.46085937 75.42632812 11 75 C11 74.34 11 73.68 11 73 C9.35 72.34 7.7 71.68 6 71 C6 70.34 6 69.68 6 69 C2.43009831 69.31499133 0.45920452 70.26045234 -2.1875 72.5625 C-5 75 -5 75 -7 75 C-7 75.66 -7 76.32 -7 77 C-10.67452438 79.8394052 -12.26886581 81 -17 81 C-17 73.41 -17 65.82 -17 58 C-18.98 57.71125 -20.96 57.4225 -23 57.125 C-28.10328816 56.34416903 -33.02435012 55.36586467 -38 54 C-37.70683897 50.58377653 -37.23611169 49.23861022 -34.78515625 46.76171875 C-33.43744141 45.73498047 -33.43744141 45.73498047 -32.0625 44.6875 C-31.16660156 43.99011719 -30.27070313 43.29273438 -29.34765625 42.57421875 C-27 41 -27 41 -25 41 C-25 40.34 -25 39.68 -25 39 C-23.70766393 37.62689293 -22.37562854 36.28965176 -21 35 C-21.66 35 -22.32 35 -23 35 C-24.31746333 32.41909233 -25.62909617 29.83549542 -26.9375 27.25 C-27.31068359 26.52039063 -27.68386719 25.79078125 -28.06835938 25.0390625 C-28.42607422 24.33007812 -28.78378906 23.62109375 -29.15234375 22.890625 C-29.6472229 21.91657715 -29.6472229 21.91657715 -30.15209961 20.92285156 C-31.01452116 18.96706921 -31.54374179 17.08459306 -32 15 C-27.85337101 15 -24.09786983 15.39539626 -20 16 C-19.67 16.33 -19.34 16.66 -19 17 C-17.55043603 17.36960994 -16.08985345 17.69659993 -14.625 18 C-11.99239863 18.54881592 -9.55817615 19.14727462 -7 20 C-6.67 18.02 -6.34 16.04 -6 14 C-5.34 14 -4.68 14 -4 14 C-3.8453125 13.0409375 -3.8453125 13.0409375 -3.6875 12.0625 C-2.76096927 7.93522674 -1.38339371 3.99357051 0 0 Z " fill="#F1D524" transform="translate(38,0)"/>
<path d="M0 0 C2.05078125 0.03255208 4.1015625 0.06510417 6.15234375 0.09765625 C5.82234375 1.08765625 5.49234375 2.07765625 5.15234375 3.09765625 C2.53515625 4.046875 2.53515625 4.046875 -0.72265625 4.78515625 C-1.79257813 5.03652344 -2.8625 5.28789063 -3.96484375 5.546875 C-6.84765625 6.09765625 -6.84765625 6.09765625 -9.84765625 6.09765625 C-9.84765625 13.68765625 -9.84765625 21.27765625 -9.84765625 29.09765625 C-15.52465462 27.96225658 -15.52465462 27.96225658 -18.66015625 25.66015625 C-19.26472656 25.22832031 -19.86929688 24.79648438 -20.4921875 24.3515625 C-21.16314453 23.73087891 -21.16314453 23.73087891 -21.84765625 23.09765625 C-21.84765625 22.43765625 -21.84765625 21.77765625 -21.84765625 21.09765625 C-24.32265625 20.10765625 -24.32265625 20.10765625 -26.84765625 19.09765625 C-26.84765625 18.43765625 -26.84765625 17.77765625 -26.84765625 17.09765625 C-30.41755794 17.41264758 -32.38845173 18.35810859 -35.03515625 20.66015625 C-37.84765625 23.09765625 -37.84765625 23.09765625 -39.84765625 23.09765625 C-39.84765625 23.75765625 -39.84765625 24.41765625 -39.84765625 25.09765625 C-43.52218063 27.93706145 -45.11652206 29.09765625 -49.84765625 29.09765625 C-49.84765625 21.50765625 -49.84765625 13.91765625 -49.84765625 6.09765625 C-51.93078125 5.82953125 -54.01390625 5.56140625 -56.16015625 5.28515625 C-62.37554087 4.48515625 -62.37554087 4.48515625 -64.765625 2.5234375 C-65.12269531 2.05292969 -65.47976562 1.58242188 -65.84765625 1.09765625 C-63.05443407 1.18438371 -60.26453097 1.29120982 -57.47265625 1.41015625 C-56.67859375 1.43271484 -55.88453125 1.45527344 -55.06640625 1.47851562 C-52.98550044 1.575507 -50.91324293 1.8276045 -48.84765625 2.09765625 C-46.71161317 5.30172087 -46.60556717 6.09366372 -46.65234375 9.765625 C-46.65878906 10.65830078 -46.66523437 11.55097656 -46.671875 12.47070312 C-46.68863281 13.39947266 -46.70539062 14.32824219 -46.72265625 15.28515625 C-46.73167969 16.22552734 -46.74070312 17.16589844 -46.75 18.13476562 C-46.77356569 20.45598593 -46.80646509 22.77669269 -46.84765625 25.09765625 C-46.08453125 24.43765625 -45.32140625 23.77765625 -44.53515625 23.09765625 C-41.84765625 21.09765625 -41.84765625 21.09765625 -38.84765625 21.09765625 C-38.84765625 20.43765625 -38.84765625 19.77765625 -38.84765625 19.09765625 C-37.45703125 17.58984375 -37.45703125 17.58984375 -35.59765625 15.97265625 C-34.994375 15.43382813 -34.39109375 14.895 -33.76953125 14.33984375 C-31.84765625 13.09765625 -31.84765625 13.09765625 -27.84765625 13.09765625 C-26.49378689 14.74768453 -25.16087483 16.41509495 -23.84765625 18.09765625 C-21.71819022 18.96731131 -21.71819022 18.96731131 -19.84765625 19.09765625 C-19.84765625 19.75765625 -19.84765625 20.41765625 -19.84765625 21.09765625 C-18.52765625 21.75765625 -17.20765625 22.41765625 -15.84765625 23.09765625 C-15.84765625 23.75765625 -15.84765625 24.41765625 -15.84765625 25.09765625 C-14.85765625 25.09765625 -13.86765625 25.09765625 -12.84765625 25.09765625 C-12.8633667 24.15913818 -12.8633667 24.15913818 -12.87939453 23.20166016 C-12.92088816 20.37536615 -12.94696098 17.54913614 -12.97265625 14.72265625 C-12.98941406 13.7378125 -13.00617187 12.75296875 -13.0234375 11.73828125 C-13.03310547 10.32675781 -13.03310547 10.32675781 -13.04296875 8.88671875 C-13.0586792 7.58275146 -13.0586792 7.58275146 -13.07470703 6.25244141 C-12.84765625 4.09765625 -12.84765625 4.09765625 -10.84765625 2.09765625 C-8.9375 1.71875 -8.9375 1.71875 -6.78515625 1.53515625 C-3.47435192 1.1672891 -2.76431701 0.14610555 0 0 Z " fill="#F4E580" transform="translate(70.84765625,51.90234375)"/>
<path d="M0 0 C1.98 0 3.96 0 6 0 C6.15855469 0.53367188 6.31710938 1.06734375 6.48046875 1.6171875 C8.40053915 7.74868303 11.00234357 13.32459514 14 19 C15.98 18.67 17.96 18.34 20 18 C19.34 19.32 18.68 20.64 18 22 C16.02 22 14.04 22 12 22 C5 9.97709924 5 9.97709924 5 3 C4.01 3.33 3.02 3.66 2 4 C0.59042583 6.8418294 0.59042583 6.8418294 -0.5625 10.25 C-0.97628906 11.38953125 -1.39007813 12.5290625 -1.81640625 13.703125 C-2.20699219 14.79109375 -2.59757812 15.8790625 -3 17 C-3.65857578 18.66988028 -4.32203673 20.3378965 -5 22 C-12.04440079 22.21133202 -18.24112575 22.07965362 -25 20 C-25 19.34 -25 18.68 -25 18 C-25.66 18 -26.32 18 -27 18 C-26.34 18.99 -25.68 19.98 -25 21 C-25 21.99 -25 22.98 -25 24 C-24.34 24 -23.68 24 -23 24 C-22.46605821 25.4117783 -21.94834896 26.82970244 -21.4375 28.25 C-21.14746094 29.03890625 -20.85742188 29.8278125 -20.55859375 30.640625 C-19.95477163 33.19103452 -20.1526068 34.55322229 -21 37 C-21 36.34 -21 35.68 -21 35 C-21.66 35 -22.32 35 -23 35 C-24.31746333 32.41909233 -25.62909617 29.83549542 -26.9375 27.25 C-27.31068359 26.52039063 -27.68386719 25.79078125 -28.06835938 25.0390625 C-28.42607422 24.33007812 -28.78378906 23.62109375 -29.15234375 22.890625 C-29.48226318 22.24125977 -29.81218262 21.59189453 -30.15209961 20.92285156 C-31.01452116 18.96706921 -31.54374179 17.08459306 -32 15 C-27.85337101 15 -24.09786983 15.39539626 -20 16 C-19.67 16.33 -19.34 16.66 -19 17 C-17.55043603 17.36960994 -16.08985345 17.69659993 -14.625 18 C-11.99239863 18.54881592 -9.55817615 19.14727462 -7 20 C-6.67 18.02 -6.34 16.04 -6 14 C-5.34 14 -4.68 14 -4 14 C-3.896875 13.360625 -3.79375 12.72125 -3.6875 12.0625 C-2.76096927 7.93522674 -1.38339371 3.99357051 0 0 Z " fill="#FAF2BB" transform="translate(38,0)"/>
<path d="M0 0 C2.05078125 0.03255208 4.1015625 0.06510417 6.15234375 0.09765625 C5.82234375 1.08765625 5.49234375 2.07765625 5.15234375 3.09765625 C2.53515625 4.046875 2.53515625 4.046875 -0.72265625 4.78515625 C-2.32753906 5.16220703 -2.32753906 5.16220703 -3.96484375 5.546875 C-6.84765625 6.09765625 -6.84765625 6.09765625 -9.84765625 6.09765625 C-9.84765625 13.68765625 -9.84765625 21.27765625 -9.84765625 29.09765625 C-15.54971134 27.95724523 -16.84731149 27.00496973 -20.84765625 23.09765625 C-20.84765625 22.10765625 -20.84765625 21.11765625 -20.84765625 20.09765625 C-21.50765625 19.76765625 -22.16765625 19.43765625 -22.84765625 19.09765625 C-21.85765625 19.09765625 -20.86765625 19.09765625 -19.84765625 19.09765625 C-19.84765625 19.75765625 -19.84765625 20.41765625 -19.84765625 21.09765625 C-18.52765625 21.75765625 -17.20765625 22.41765625 -15.84765625 23.09765625 C-15.84765625 23.75765625 -15.84765625 24.41765625 -15.84765625 25.09765625 C-14.85765625 25.09765625 -13.86765625 25.09765625 -12.84765625 25.09765625 C-12.85812988 24.47197754 -12.86860352 23.84629883 -12.87939453 23.20166016 C-12.92088816 20.37536615 -12.94696098 17.54913614 -12.97265625 14.72265625 C-12.99779297 13.24539062 -12.99779297 13.24539062 -13.0234375 11.73828125 C-13.02988281 10.79726563 -13.03632812 9.85625 -13.04296875 8.88671875 C-13.05344238 8.01740723 -13.06391602 7.1480957 -13.07470703 6.25244141 C-12.84765625 4.09765625 -12.84765625 4.09765625 -10.84765625 2.09765625 C-8.9375 1.71875 -8.9375 1.71875 -6.78515625 1.53515625 C-3.47435192 1.1672891 -2.76431701 0.14610555 0 0 Z " fill="#F3E370" transform="translate(70.84765625,51.90234375)"/>
<path d="M0 0 C6.32640971 0.65672073 12.39723221 1.95501751 18 5 C18.33 5.99 18.66 6.98 19 8 C17.58297487 7.85769192 16.1663904 7.71099254 14.75 7.5625 C13.56664062 7.44068359 13.56664062 7.44068359 12.359375 7.31640625 C10.17635361 7.02365007 8.1226818 6.57935581 6 6 C6 5.34 6 4.68 6 4 C5.34 4 4.68 4 4 4 C4.99 5.485 4.99 5.485 6 7 C6 7.99 6 8.98 6 10 C6.66 10 7.32 10 8 10 C8.53394179 11.4117783 9.05165104 12.82970244 9.5625 14.25 C9.85253906 15.03890625 10.14257812 15.8278125 10.44140625 16.640625 C11.04522837 19.19103452 10.8473932 20.55322229 10 23 C10 22.34 10 21.68 10 21 C9.34 21 8.68 21 8 21 C6.68253667 18.41909233 5.37090383 15.83549542 4.0625 13.25 C3.68931641 12.52039062 3.31613281 11.79078125 2.93164062 11.0390625 C2.57392578 10.33007812 2.21621094 9.62109375 1.84765625 8.890625 C1.3527771 7.91657715 1.3527771 7.91657715 0.84790039 6.92285156 C-0.02203728 4.9500243 -0.62417332 3.12332101 -1 1 C-0.67 0.67 -0.34 0.34 0 0 Z " fill="#F5E57A" transform="translate(7,14)"/>
<path d="M0 0 C0.99 0.33 1.98 0.66 3 1 C2.36355878 3.99156701 1.38047987 6.41938953 -0.06640625 9.109375 C-0.46923828 9.86347656 -0.87207031 10.61757813 -1.28710938 11.39453125 C-1.70798828 12.17183594 -2.12886719 12.94914062 -2.5625 13.75 C-2.98724609 14.54277344 -3.41199219 15.33554687 -3.84960938 16.15234375 C-4.89582417 18.10371067 -5.94605953 20.05279814 -7 22 C-4.28395285 24.87420123 -4.28395285 24.87420123 -1 27 C-1 27.66 -1 28.32 -1 29 C-0.46375 29.226875 0.0725 29.45375 0.625 29.6875 C3.87720486 31.48477111 6.29921515 33.4219781 9 36 C9 37.32 9 38.64 9 40 C8.34 40 7.68 40 7 40 C6.773125 39.236875 6.54625 38.47375 6.3125 37.6875 C4.72697825 34.44095547 3.09785421 33.71197206 0 32 C0 31.34 0 30.68 0 30 C-0.7425 29.9175 -1.485 29.835 -2.25 29.75 C-5.61204018 28.83307995 -6.96464165 27.81818848 -9 25 C-8.55035888 20.82054891 -6.96982771 17.07725497 -5.4375 13.1875 C-4.75494141 11.44533203 -4.75494141 11.44533203 -4.05859375 9.66796875 C-3.53458984 8.34732422 -3.53458984 8.34732422 -3 7 C-2.34 7 -1.68 7 -1 7 C-1.66 5.35 -2.32 3.7 -3 2 C-2.01 1.34 -1.02 0.68 0 0 Z " fill="#F9F1B6" transform="translate(73,14)"/>
<path d="M0 0 C2.79322218 0.08672746 5.58312528 0.19355357 8.375 0.3125 C9.1690625 0.33505859 9.963125 0.35761719 10.78125 0.38085938 C12.86215581 0.47785075 14.93441332 0.72994825 17 1 C19.42945561 4.64418341 19.0828781 5.92923364 18.625 10.1875 C18.45871094 11.81751953 18.45871094 11.81751953 18.2890625 13.48046875 C18.14597656 14.72763672 18.14597656 14.72763672 18 16 C17.34 15.67 16.68 15.34 16 15 C16 11.7 16 8.4 16 5 C15.09636719 4.89042969 14.19273438 4.78085937 13.26171875 4.66796875 C12.08222656 4.50941406 10.90273437 4.35085937 9.6875 4.1875 C8.51574219 4.03667969 7.34398437 3.88585938 6.13671875 3.73046875 C3.00579726 3.00135005 1.90354807 2.50828536 0 0 Z " fill="#F5E888" transform="translate(5,53)"/>
<path d="M0 0 C2 2 2 2 2 5 C1.34 5 0.68 5 0 5 C-0.33 6.32 -0.66 7.64 -1 9 C-1 7.68 -1 6.36 -1 5 C-1.78503906 5.144375 -2.57007812 5.28875 -3.37890625 5.4375 C-8.99610964 6.42998747 -14.29497537 7.2593193 -20 7 C-20 6.67 -20 6.34 -20 6 C-19.05125 5.896875 -18.1025 5.79375 -17.125 5.6875 C-13.70892499 5.31460705 -13.70892499 5.31460705 -12 2 C-7.92517143 0.24041494 -4.42601411 -0.40236492 0 0 Z " fill="#F1DB44" transform="translate(70,16)"/>
<path d="M0 0 C1.73473712 1.94125344 3.4045651 3.94272868 5 6 C5.66 6.33 6.32 6.66 7 7 C6.67 7.99 6.34 8.98 6 10 C6 9.34 6 8.68 6 8 C4.35 7.34 2.7 6.68 1 6 C1 5.34 1 4.68 1 4 C-2.56990169 4.31499133 -4.54079548 5.26045234 -7.1875 7.5625 C-10 10 -10 10 -12 10 C-12.33 10.66 -12.66 11.32 -13 12 C-12.52575143 7.73176286 -10.04238597 5.82507269 -7 3 C-6.484375 2.401875 -5.96875 1.80375 -5.4375 1.1875 C-4 0 -4 0 0 0 Z " fill="#F9F0B2" transform="translate(43,65)"/>
<path d="M0 0 C1.32 0.66 2.64 1.32 4 2 C3.938125 2.70125 3.87625 3.4025 3.8125 4.125 C4.1264606 8.93906249 6.47693502 12.27352086 9.25 16.125 C11 19 11 19 10.75 21.375 C10.5025 21.91125 10.255 22.4475 10 23 C10 22.34 10 21.68 10 21 C9.34 21 8.68 21 8 21 C6.68253667 18.41909233 5.37090383 15.83549542 4.0625 13.25 C3.68931641 12.52039062 3.31613281 11.79078125 2.93164062 11.0390625 C2.57392578 10.33007812 2.21621094 9.62109375 1.84765625 8.890625 C1.3527771 7.91657715 1.3527771 7.91657715 0.84790039 6.92285156 C-0.02203728 4.9500243 -0.62417332 3.12332101 -1 1 C-0.67 0.67 -0.34 0.34 0 0 Z " fill="#FBF2C0" transform="translate(7,14)"/>
<path d="M0 0 C0.33 0.66 0.66 1.32 1 2 C0.34 2 -0.32 2 -1 2 C-1.226875 2.7425 -1.45375 3.485 -1.6875 4.25 C-3.27873033 7.5840064 -4.90843224 9.01256359 -8 11 C-9.32 11 -10.64 11 -12 11 C-12.33 12.65 -12.66 14.3 -13 16 C-13.66 16 -14.32 16 -15 16 C-14.70683897 12.58377653 -14.23611169 11.23861022 -11.78515625 8.76171875 C-10.43744141 7.73498047 -10.43744141 7.73498047 -9.0625 6.6875 C-8.16660156 5.99011719 -7.27070312 5.29273438 -6.34765625 4.57421875 C-4 3 -4 3 -2 3 C-2 2.34 -2 1.68 -2 1 C-1.34 0.67 -0.68 0.34 0 0 Z " fill="#F8EC9C" transform="translate(15,38)"/>
<path d="M0 0 C2.05078125 0.03255208 4.1015625 0.06510417 6.15234375 0.09765625 C5.15234375 3.09765625 5.15234375 3.09765625 3.15234375 4.09765625 C1.00759731 4.1690526 -1.13932979 4.18168628 -3.28515625 4.16015625 C-4.43886719 4.15113281 -5.59257813 4.14210938 -6.78125 4.1328125 C-7.79316406 4.12121094 -8.80507813 4.10960937 -9.84765625 4.09765625 C-10.83765625 4.09765625 -11.82765625 4.09765625 -12.84765625 4.09765625 C-10.54941966 1.79941966 -9.89884743 1.80075241 -6.78515625 1.53515625 C-3.47435192 1.1672891 -2.76431701 0.14610555 0 0 Z " fill="#F4E36D" transform="translate(70.84765625,51.90234375)"/>
<path d="M0 0 C0.99 0.33 1.98 0.66 3 1 C2.32902328 5.19360449 0.1441606 8.40334352 -2 12 C-2.66 11.67 -3.32 11.34 -4 11 C-3.67 9.68 -3.34 8.36 -3 7 C-2.34 7 -1.68 7 -1 7 C-1.66 5.35 -2.32 3.7 -3 2 C-2.01 1.34 -1.02 0.68 0 0 Z " fill="#F8F0AE" transform="translate(73,14)"/>
<path d="M0 0 C-3.625 3 -3.625 3 -7 3 C-7.33 4.65 -7.66 6.3 -8 8 C-8.66 7.67 -9.32 7.34 -10 7 C-10.1875 4.625 -10.1875 4.625 -10 2 C-6.3558226 -0.4294516 -4.28758728 -0.16179575 0 0 Z " fill="#F6E88B" transform="translate(68,55)"/>
<path d="M0 0 C0.99 0 1.98 0 3 0 C3.33 1.98 3.66 3.96 4 6 C2.02 6 0.04 6 -2 6 C-2.33 6.99 -2.66 7.98 -3 9 C-2.44271087 5.65626525 -1.64826111 2.96687001 0 0 Z " fill="#F2DB44" transform="translate(40,3)"/>
<path d="M0 0 C0 2.62113708 -0.31292445 4.50935112 -1 7 C-3.31 7 -5.62 7 -8 7 C-8.66 5.68 -9.32 4.36 -10 3 C-7.69 3.66 -5.38 4.32 -3 5 C-2.814375 4.0409375 -2.814375 4.0409375 -2.625 3.0625 C-2.41875 2.381875 -2.2125 1.70125 -2 1 C-1.34 0.67 -0.68 0.34 0 0 Z " fill="#F9EEA6" transform="translate(34,15)"/>
<path d="M0 0 C0.33 0.66 0.66 1.32 1 2 C0.34 2 -0.32 2 -1 2 C-1 2.66 -1 3.32 -1 4 C-3.64 4 -6.28 4 -9 4 C-9 3.34 -9 2.68 -9 2 C-5.5647952 -0.29013653 -4.014669 -0.17842973 0 0 Z " fill="#F5E579" transform="translate(70,16)"/>
<path d="M0 0 C0.33 0 0.66 0 1 0 C1 4.62 1 9.24 1 14 C2.32 14 3.64 14 5 14 C5 14.66 5 15.32 5 16 C3.35 16.66 1.7 17.32 0 18 C0 12.06 0 6.12 0 0 Z " fill="#F0D415" transform="translate(26,57)"/>
<path d="M0 0 C0.99 0 1.98 0 3 0 C3 0.66 3 1.32 3 2 C3.598125 2.268125 4.19625 2.53625 4.8125 2.8125 C6.97224808 3.98493467 8.35790256 5.19369282 10 7 C9.67 7.99 9.34 8.98 9 10 C7.82460004 9.07347299 6.65989423 8.13336613 5.5 7.1875 C4.52546875 6.40439453 4.52546875 6.40439453 3.53125 5.60546875 C2 4 2 4 2 1 C1.34 0.67 0.68 0.34 0 0 Z " fill="#F7E98F" transform="translate(48,71)"/>
<path d="M0 0 C1.34444159 0.90029571 2.67531438 1.82088022 4 2.75 C5.11375 3.51570313 5.11375 3.51570313 6.25 4.296875 C6.8275 4.85890625 7.405 5.4209375 8 6 C8 7.32 8 8.64 8 10 C7.34 10 6.68 10 6 10 C5.7525 9.21625 5.505 8.4325 5.25 7.625 C3.84610901 4.67682892 2.99324263 4.0975223 0 3 C0 2.01 0 1.02 0 0 Z " fill="#FBF4C7" transform="translate(74,44)"/>
<path d="M0 0 C0.66 0 1.32 0 2 0 C2 0.66 2 1.32 2 2 C4.31 2.33 6.62 2.66 9 3 C9 3.66 9 4.32 9 5 C6.69 5 4.38 5 2 5 C1.34 3.35 0.68 1.7 0 0 Z " fill="#F0D413" transform="translate(11,18)"/>
<path d="M0 0 C0 0.99 0 1.98 0 3 C-0.639375 3.226875 -1.27875 3.45375 -1.9375 3.6875 C-4.27193661 4.85250896 -4.27193661 4.85250896 -4.75 7.625 C-4.8325 8.40875 -4.915 9.1925 -5 10 C-5.66 10 -6.32 10 -7 10 C-6.84518205 7.29068581 -6.51827919 5.53415961 -4.59765625 3.5546875 C-3.10228292 2.32320358 -1.5537076 1.1570163 0 0 Z " fill="#FBF8D1" transform="translate(7,44)"/>
<path d="M0 0 C1 3 1 3 -0.25 6.625 C-2 10 -2 10 -5 11 C-5 10.34 -5 9.68 -5 9 C-4.34 9 -3.68 9 -3 9 C-2.87625 8.2575 -2.7525 7.515 -2.625 6.75 C-2.04513299 4.19858515 -1.26291261 2.2732427 0 0 Z " fill="#FCF7D5" transform="translate(37,5)"/>
<path d="M0 0 C0.66 0 1.32 0 2 0 C2 0.99 2 1.98 2 3 C4.31 3 6.62 3 9 3 C9 3.33 9 3.66 9 4 C5.7 4.33 2.4 4.66 -1 5 C-0.67 3.35 -0.34 1.7 0 0 Z " fill="#F2DD50" transform="translate(3,49)"/>
<path d="M0 0 C1.9375 0.3125 1.9375 0.3125 4 1 C4.33 1.99 4.66 2.98 5 4 C2.03 3.67 -0.94 3.34 -4 3 C-2.68 2.67 -1.36 2.34 0 2 C0 1.34 0 0.68 0 0 Z " fill="#F2DD4D" transform="translate(21,18)"/>
<path d="M0 0 C0.66666667 2.66666667 1.33333333 5.33333333 2 8 C2.66 8 3.32 8 4 8 C3.67 9.32 3.34 10.64 3 12 C0.70423322 9.70423322 -0.0638375 8.09653751 -1 5 C-0.625 2.1875 -0.625 2.1875 0 0 Z " fill="#F4E16B" transform="translate(11,16)"/>
<path d="M0 0 C1.32 0.66 2.64 1.32 4 2 C3.34 3.65 2.68 5.3 2 7 C0.4375 5.75 0.4375 5.75 -1 4 C-0.6875 1.8125 -0.6875 1.8125 0 0 Z " fill="#FEFCEC" transform="translate(7,14)"/>
<path d="M0 0 C0.99 0.33 1.98 0.66 3 1 C2.42655063 3.86724686 2.1385485 4.8614515 0 7 C-0.38133299 5.0085944 -0.71325582 3.00720923 -1 1 C-0.67 0.67 -0.34 0.34 0 0 Z " fill="#FEFCEB" transform="translate(73,14)"/>
</svg>
